Coordinates
version=1
nRows=8
nColumns=63
inDegrees=yes

Units are S.I. units (second, meters, Newtons, ...)
If the header above contains a line with 'inDegrees', this indicates whether rotational values are in degrees (yes) or radians (no).

endheader
time	pelvis_tilt	pelvis_list	pelvis_rotation	pelvis_tx	pelvis_ty	pelvis_tz	hip_flexion_r	hip_adduction_r	hip_rotation_r	knee_angle_r	knee_angle_r_beta	ankle_angle_r	subtalar_angle_r	mtp_angle_r	hip_flexion_l	hip_adduction_l	hip_rotation_l	knee_angle_l	knee_angle_l_beta	ankle_angle_l	subtalar_angle_l	mtp_angle_l	L5_S1_Flex_Ext	L5_S1_Lat_Bending	L5_S1_axial_rotation	L4_L5_Flex_Ext	L4_L5_Lat_Bending	L4_L5_axial_rotation	L3_L4_Flex_Ext	L3_L4_Lat_Bending	L3_L4_axial_rotation	L2_L3_Flex_Ext	L2_L3_Lat_Bending	L2_L3_axial_rotation	L1_L2_Flex_Ext	L1_L2_Lat_Bending	L1_L2_axial_rotation	L1_T12_Flex_Ext	L1_T12_Lat_Bending	L1_T12_axial_rotation	Abs_r3	Abs_r2	Abs_r1	Abs_t1	Abs_t2	neck_flexion	neck_bending	neck_rotation	arm_flex_r	arm_add_r	arm_rot_r	elbow_flex_r	pro_sup_r	wrist_flex_r	wrist_dev_r	arm_flex_l	arm_add_l	arm_rot_l	elbow_flex_l	pro_sup_l	wrist_flex_l	wrist_dev_l
      8.51851852	     -3.15125937	     -6.16307572	     81.47135212	      0.00981404	      0.97653781	      0.52414945	      3.52203373	     -2.08269278	      3.38245364	      7.44627293	      0.12996198	     27.55744155	      6.66446092	      0.00000000	      1.77038550	      1.79064980	     -3.01681756	      3.15276344	      0.05502610	     26.53989657	     -4.96185137	      0.00000000	      0.08339603	     -0.68148566	      3.82790454	      0.15487477	     -0.90637593	      4.06714857	      0.13701134	     -1.65696424	      4.06714857	      0.09531332	     -1.65696424	      3.34941647	      0.07744155	     -1.38968556	      3.11017244	      0.04765249	     -1.05562129	      2.87092840	      0.59568950	     -7.70910210	     21.28965668	      0.00000000	      0.00000000	     21.81386611	      3.36671249	    -17.02397100	     14.57859935	    -25.32231186	      0.83349723	     99.86620391	     60.07176283	     -7.93863156	     18.34513115	     23.88434721	     -0.41997859	     24.60819428	     78.57276116	     70.99025847	     -9.58283533	     12.38927589
      8.53703704	     -2.96709428	     -6.43168842	     82.03846380	      0.00907188	      0.97621102	      0.52533823	      3.88197123	     -1.86759414	      3.02893606	      7.46744486	      0.13033150	     27.67094908	      6.37133866	      0.00000000	      2.28174993	      1.55201965	     -3.20071548	      3.51219077	      0.06129929	     26.90076254	     -4.34391637	      0.00000000	      0.07859973	     -0.65001515	      3.74695845	      0.14596757	     -0.86452015	      3.98114335	      0.12913150	     -1.58044684	      3.98114335	      0.08983164	     -1.58044684	      3.27858864	      0.07298771	     -1.32551089	      3.04440374	      0.04491189	     -1.00687347	      2.81021883	      0.56143004	     -7.35310138	     20.83945879	      0.00000000	      0.00000000	     22.31663869	      2.39423400	    -17.58393195	     11.10017658	    -24.00411993	     -1.33153372	    103.93768202	     61.58848970	     -8.39549168	     19.21968272	     23.34625101	     -1.44398227	     25.69040770	     81.27379647	     71.62378721	     -8.89011207	     13.53637706
      8.55555556	     -2.81868790	     -6.69952355	     82.28064510	      0.00833812	      0.97595398	      0.52686900	      4.26533537	     -1.70934207	      2.88911561	      7.41381214	      0.12939543	     27.69441009	      6.31351175	      0.00000000	      2.72929689	      1.37216411	     -3.32495361	      3.67471314	      0.06413584	     26.98394570	     -4.15156817	      0.00000000	      0.07737465	     -0.60470948	      3.61802871	      0.14369247	     -0.80426361	      3.84415550	      0.12711882	     -1.47029063	      3.84415550	      0.08843149	     -1.47029063	      3.16577512	      0.07185010	     -1.23312357	      2.93964832	      0.04421188	     -0.93669498	      2.71352153	      0.55267940	     -6.84059456	     20.12239026	      0.00000000	      0.00000000	     22.86547628	      1.50092730	    -16.82929054	      8.47884923	    -23.73775535	     -1.36473567	    108.40479483	     62.03173983	     -7.73453130	     19.52225953	     22.47753807	     -2.96404088	     26.50788537	     84.43873289	     71.71128565	     -8.38102619	     13.83522643
      8.57407407	     -2.67917267	     -6.99855252	     82.94534253	      0.00701913	      0.97570198	      0.52878999	      4.64064170	     -1.58667357	      2.37420159	      7.36090334	      0.12847200	     27.63935455	      6.10709543	      0.00000000	      3.38647275	      1.20403280	     -3.21336230	      4.08148766	      0.07123540	     27.19677914	     -3.70671352	      0.00000000	      0.08042771	     -0.56385863	      3.38442790	      0.14936229	     -0.74993198	      3.59595464	      0.13213468	     -1.37096588	      3.59595464	      0.09192083	     -1.37096588	      2.96137441	      0.07468517	     -1.14982052	      2.74984767	      0.04595639	     -0.87341702	      2.53832093	      0.57448707	     -6.37848162	     18.82317265	      0.00000000	      0.00000000	     23.23664983	      0.96649432	    -16.19880153	      6.47652497	    -24.07366013	     -0.81957880	    113.71950298	     62.74106885	     -6.54025846	     20.90830558	     21.70250655	     -4.72029135	     27.34038620	     87.51249625	     71.76838502	     -8.03864642	     14.54276615
      8.59259259	     -2.54078512	     -7.17155695	     84.15772650	      0.00536805	      0.97570111	      0.53113480	      4.79401378	     -1.51625244	      1.25623869	      7.23302948	      0.12624018	     27.51412395	      5.99004996	      0.00000000	      4.08612496	      1.03057481	     -2.88404308	      4.73182849	      0.08258599	     27.48852631	     -2.48950625	      0.00000000	      0.06975643	     -0.53379210	      2.90477184	      0.12954466	     -0.70994349	      3.08632008	      0.11460283	     -1.29786211	      3.08632008	      0.07972462	     -1.29786211	      2.54167536	      0.06477582	     -1.08850885	      2.36012712	      0.03985882	     -0.82684396	      2.17857888	      0.49826317	     -6.03836299	     16.15546954	      0.00000000	      0.00000000	     23.30212753	      1.22071572	    -15.53657234	      6.12417250	    -24.78985068	      0.57464034	    119.24980813	     64.69913393	     -3.83223721	     22.83015518	     20.70200080	     -6.91546193	     27.47256551	     90.33953525	     72.90252771	     -7.92212036	     15.11097311
      8.61111111	     -2.47858447	     -7.36608260	     84.72276474	      0.00443427	      0.97562428	      0.53376301	      5.08951035	     -1.52781168	      0.16179997	      7.24964351	      0.12653015	     27.45306139	      6.68589145	      0.00000000	      4.71503237	      0.90219714	     -3.33479211	      5.24218267	      0.09149335	     27.67450498	     -1.06001788	      0.00000000	      0.07606063	     -0.51281775	      2.46202736	      0.14125220	     -0.68204761	      2.61590407	      0.12496001	     -1.24686508	      2.61590407	      0.08692970	     -1.24686508	      2.15427394	      0.07062990	     -1.04573796	      2.00039723	      0.04346105	     -0.79435470	      1.84652052	      0.54329349	     -5.80109696	     13.69305757	      0.00000000	      0.00000000	     23.28868931	      1.69703888	    -14.98360021	      7.11290315	    -26.25230332	      2.32368791	    124.79607613	     69.44404009	     -0.02799021	     21.86603322	     19.42136306	     -9.13884917	     27.03104486	     92.34501797	     77.48001798	     -7.26074154	     14.64134303
      8.62962963	     -2.38428095	     -7.51595453	     85.32925057	      0.00351803	      0.97554810	      0.53637372	      5.26717480	     -1.49814667	     -0.68977587	      7.18583345	      0.12541645	     27.27975267	      6.92704171	      0.00000000	      5.27727730	      0.78204717	     -3.00347228	      5.73806961	      0.10014821	     27.57994320	     -0.65265841	      0.00000000	      0.08557020	     -0.49158711	      1.97748566	      0.15891243	     -0.65381086	      2.10107851	      0.14058329	     -1.19524491	      2.10107851	      0.09779819	     -1.19524491	      1.73029995	      0.07946049	     -1.00244444	      1.60670710	      0.04889481	     -0.76146844	      1.48311424	      0.61121941	     -5.56093174	     10.99818199	      0.00000000	      0.00000000	     23.04898951	      2.23154951	    -14.88209868	      9.61766242	    -28.31148070	      3.54858049	    130.03265956	     77.29224209	      4.86778405	     18.28733927	     18.01950045	    -11.35636418	     26.50895499	     93.33225131	     83.25590426	     -6.74784284	     13.48241634
      8.64814815	     -2.31082744	     -7.65430249	     85.71556064	      0.00295392	      0.97542675	      0.53871749	      5.42914516	     -1.46476549	     -1.22739222	      7.11766884	      0.12422676	     27.06014917	      6.97061880	      0.00000000	      5.74311191	      0.69563525	     -2.45003784	      6.13983079	      0.10716026	     27.32069671	     -0.87102374	      0.00000000	      0.10421142	     -0.47695211	      1.54588192	      0.19353102	     -0.63434630	      1.64249954	      0.17120894	     -1.15966135	      1.64249954	      0.11910323	     -1.15966135	      1.35264668	      0.09677072	     -0.97260074	      1.25602906	      0.05954640	     -0.73879881	      1.15941144	      0.74437173	     -5.39537762	      8.59773145	      0.00000000	      0.00000000	     22.53250163	      2.32104897	    -15.56837930	     13.66621860	    -30.65047638	      3.88064546	    134.56407133	     84.25641859	      8.66070219	     13.34093648	     16.68735750	    -13.47469807	     26.28738651	     93.22854270	     86.97724840	     -6.42798829	     12.71575228
